<svg width="16" height="17" viewBox="0 0 16 17" fill="none" xmlns="http://www.w3.org/2000/svg">
<path d="M7.3 15.8C7.11667 15.6167 7.02067 15.3834 7.012 15.1C7.004 14.8167 7.09167 14.5834 7.275 14.4L12.175 9.50005H1C0.716667 9.50005 0.479 9.40405 0.287 9.21205C0.0956668 9.02071 0 8.78338 0 8.50005C0 8.21672 0.0956668 7.97905 0.287 7.78705C0.479 7.59572 0.716667 7.50005 1 7.50005H12.175L7.275 2.60005C7.09167 2.41672 7.004 2.18338 7.012 1.90005C7.02067 1.61672 7.11667 1.38338 7.3 1.20005C7.48333 1.01672 7.71667 0.925049 8 0.925049C8.28333 0.925049 8.51667 1.01672 8.7 1.20005L15.3 7.80005C15.4 7.88338 15.471 7.98738 15.513 8.11205C15.5543 8.23738 15.575 8.36672 15.575 8.50005C15.575 8.63338 15.5543 8.75838 15.513 8.87505C15.471 8.99172 15.4 9.10005 15.3 9.20005L8.7 15.8C8.51667 15.9834 8.28333 16.075 8 16.075C7.71667 16.075 7.48333 15.9834 7.3 15.8Z" fill="white"/>
</svg>
