<svg width="16" height="16" viewBox="0 0 16 16" fill="none" xmlns="http://www.w3.org/2000/svg">
<path d="M7.3 15.3C7.11667 15.1167 7.02067 14.8833 7.012 14.6C7.004 14.3167 7.09167 14.0833 7.275 13.9L12.175 8.99999H1C0.716667 8.99999 0.479 8.90399 0.287 8.71199C0.0956668 8.52065 0 8.28332 0 7.99999C0 7.71665 0.0956668 7.47899 0.287 7.28699C0.479 7.09565 0.716667 6.99999 1 6.99999H12.175L7.275 2.09999C7.09167 1.91665 7.004 1.68332 7.012 1.39999C7.02067 1.11665 7.11667 0.883321 7.3 0.699987C7.48333 0.516654 7.71667 0.424988 8 0.424988C8.28333 0.424988 8.51667 0.516654 8.7 0.699987L15.3 7.29999C15.4 7.38332 15.471 7.48732 15.513 7.61199C15.5543 7.73732 15.575 7.86665 15.575 7.99999C15.575 8.13332 15.5543 8.25832 15.513 8.37499C15.471 8.49165 15.4 8.59999 15.3 8.69999L8.7 15.3C8.51667 15.4833 8.28333 15.575 8 15.575C7.71667 15.575 7.48333 15.4833 7.3 15.3Z" fill="#3C3C3C"/>
</svg>
