<svg width="24" height="24" viewBox="0 0 24 24" fill="none" xmlns="http://www.w3.org/2000/svg">
<rect width="24" height="24" rx="12" fill="#F5F5F5"/>
<path fill-rule="evenodd" clip-rule="evenodd" d="M11.9297 6.00024C15.4702 6.00024 18.3404 8.29855 18.3404 11.1336C18.3404 12.1239 17.99 13.0485 17.3833 13.8327C17.3533 13.8773 17.3141 13.9267 17.2646 13.9811L17.2609 13.9852C17.0537 14.2331 16.8203 14.4659 16.5637 14.6808C14.7909 16.3194 11.8729 18.2702 11.4878 17.9693C11.153 17.7076 12.0392 16.428 11.0168 16.215C10.9455 16.2068 10.8743 16.198 10.8038 16.188L10.8025 16.188V16.1879C7.79949 15.7612 5.51904 13.6607 5.51904 11.1336C5.51895 8.29855 8.38916 6.00024 11.9297 6.00024Z" fill="#5A5A5A"/>
<path fill-rule="evenodd" clip-rule="evenodd" d="M8.21031 12.7708H9.50325C9.68716 12.7708 9.83759 12.6203 9.83759 12.4364V12.4085C9.83759 12.2246 9.68716 12.0742 9.50325 12.0742H8.57254V9.95665C8.57254 9.77274 8.42212 9.62231 8.2382 9.62231H8.21031C8.0264 9.62231 7.87598 9.77274 7.87598 9.95665V12.4364C7.87598 12.6203 8.0264 12.7708 8.21031 12.7708ZM16.222 11.2165V11.1886C16.222 11.0047 16.0715 10.8542 15.8876 10.8542H14.957V10.3248H15.8876C16.0715 10.3248 16.222 10.1744 16.222 9.99051V9.96262C16.222 9.77871 16.0715 9.62828 15.8876 9.62828H14.5947C14.4108 9.62828 14.2604 9.77871 14.2604 9.96262V12.4423C14.2604 12.6262 14.4108 12.7767 14.5947 12.7767H15.8876C16.0715 12.7767 16.222 12.6262 16.222 12.4423V12.4144C16.222 12.2305 16.0715 12.0801 15.8876 12.0801H14.957V11.5507H15.8876C16.0715 11.5508 16.222 11.4003 16.222 11.2165ZM13.7355 12.6711L13.7356 12.671C13.7975 12.6086 13.8323 12.5243 13.8323 12.4365V9.95674C13.8323 9.77283 13.6819 9.62241 13.4979 9.62241H13.47C13.2861 9.62241 13.1357 9.77283 13.1357 9.95674V11.4124L11.9272 9.79147C11.8695 9.69068 11.7608 9.62241 11.6369 9.62241H11.609C11.4251 9.62241 11.2747 9.77283 11.2747 9.95674V12.4365C11.2747 12.6204 11.4251 12.7708 11.609 12.7708H11.6369C11.8208 12.7708 11.9713 12.6204 11.9713 12.4365V10.9536L13.1884 12.6161C13.1959 12.6277 13.2041 12.6389 13.213 12.6496L13.213 12.6497C13.2464 12.6953 13.2922 12.7265 13.3432 12.7456C13.3823 12.7618 13.4252 12.7708 13.47 12.7708H13.4979C13.5524 12.7708 13.606 12.7574 13.6541 12.7318C13.6875 12.7158 13.7157 12.6953 13.7355 12.6711ZM10.4418 12.7708H10.4697C10.6536 12.7708 10.804 12.6203 10.804 12.4364V9.9567C10.804 9.77278 10.6536 9.62236 10.4697 9.62236H10.4418C10.2579 9.62236 10.1074 9.77278 10.1074 9.9567V12.4364C10.1074 12.6203 10.2579 12.7708 10.4418 12.7708Z" fill="#F5F5F5"/>
</svg>
