<svg width="240" height="80" viewBox="0 0 240 80" fill="none" xmlns="http://www.w3.org/2000/svg">
<path d="M24.568 16.6626C33.0502 15.6057 38.3462 13.6745 41.8327 11.6228L41.8991 11.5004C16.4152 -3.93012 8.81282 23.3946 8.81282 23.3946L8.86203 23.4252C12.2271 20.7174 17.5288 17.5411 24.568 16.6626Z" fill="url(#paint0_linear_30_69)"/>
<path d="M24.5696 16.4572C17.5357 17.3373 12.1382 20.4112 8.8585 23.4262C28.2775 35.5031 40.8259 13.4693 41.8292 11.6238C38.34 13.6769 33.0518 15.4002 24.5696 16.4572Z" fill="url(#paint1_linear_30_69)"/>
<path d="M119.816 46.6865C119.816 47.7253 120.332 48.2447 121.364 48.2447H126.542V45.988H119.816V46.6865ZM121.364 37.8208C120.332 37.8208 119.816 38.3402 119.816 39.379V40.0238H126.542V37.8208H121.364ZM141.222 40.0238V39.379C141.222 38.3402 140.706 37.8208 139.674 37.8208H134.816V40.0238H141.222ZM139.674 48.2447C140.706 48.2447 141.222 47.7253 141.222 46.6865V45.988H134.816V48.2447H139.674ZM152.166 57.1104C153.874 57.1104 154.728 58.2925 154.728 60.6567C154.728 63.0208 153.874 64.2029 152.166 64.2029H140.528C145.155 67.5701 149.568 69.8447 153.767 71.0268C155.511 71.5283 155.511 72.8716 153.767 75.0567C152.023 77.2776 150.351 78.0477 148.749 77.3671C144.336 75.7193 139.692 72.6388 134.816 68.1253V77.4208C134.816 79.1403 133.428 80 130.652 80C127.912 80 126.542 79.1403 126.542 77.4208V68.4477C121.702 73.0328 116.951 76.1492 112.289 77.797C110.687 78.4417 109.015 77.6716 107.271 75.4865C105.527 73.3373 105.527 71.994 107.271 71.4567C111.897 70.1313 116.453 67.7134 120.937 64.2029H108.979C107.271 64.2029 106.417 63.0208 106.417 60.6567C106.417 58.2925 107.271 57.1104 108.979 57.1104H126.542V54.6925H114.638C112.68 54.6925 111.702 53.7074 111.702 51.7372V34.3283C111.702 32.3581 112.68 31.373 114.638 31.373H146.827C148.785 31.373 149.764 32.3581 149.764 34.3283V51.7372C149.764 53.7074 148.785 54.6925 146.827 54.6925H134.816V57.1104H152.166Z" fill="#FBB8B7"/>
<path d="M66.4329 46.6865C66.4329 47.7253 66.949 48.2447 67.981 48.2447H73.1592V45.988H66.4329V46.6865ZM67.981 37.8208C66.949 37.8208 66.4329 38.3402 66.4329 39.379V40.0238H73.1592V37.8208H67.981ZM87.8395 40.0238V39.379C87.8395 38.3402 87.3234 37.8208 86.2914 37.8208H81.4335V40.0238H87.8395ZM86.2914 48.2447C87.3234 48.2447 87.8395 47.7253 87.8395 46.6865V45.988H81.4335V48.2447H86.2914ZM98.783 57.1104C100.491 57.1104 101.345 58.2925 101.345 60.6567C101.345 63.0208 100.491 64.2029 98.783 64.2029H87.1455C91.772 67.5701 96.185 69.8447 100.384 71.0268C102.128 71.5283 102.128 72.8716 100.384 75.0567C98.6406 77.2776 96.9679 78.0477 95.3665 77.3671C90.9535 75.7193 86.3092 72.6388 81.4335 68.1253V77.4208C81.4335 79.1403 80.0456 80 77.2697 80C74.5293 80 73.1592 79.1403 73.1592 77.4208V68.4477C68.3191 73.0328 63.5681 76.1492 58.9059 77.797C57.3045 78.4417 55.6318 77.6716 53.888 75.4865C52.1441 73.3373 52.1441 71.994 53.888 71.4567C58.5145 70.1313 63.0698 67.7134 67.554 64.2029H55.5962C53.888 64.2029 53.0338 63.0208 53.0338 60.6567C53.0338 58.2925 53.888 57.1104 55.5962 57.1104H73.1592V54.6925H61.2548C59.2974 54.6925 58.3187 53.7074 58.3187 51.7372V34.3283C58.3187 32.3581 59.2974 31.373 61.2548 31.373H93.4447C95.402 31.373 96.3807 32.3581 96.3807 34.3283V51.7372C96.3807 53.7074 95.402 54.6925 93.4447 54.6925H81.4335V57.1104H98.783Z" fill="#FBB8B7"/>
<path d="M216.303 73.0002C216.41 72.1763 216.73 71.8181 217.264 71.9256C217.816 72.0151 218.038 72.4539 217.931 73.242C217.7 75.3196 217.362 76.9942 216.917 78.2659C216.775 78.7316 216.437 78.8659 215.903 78.6689C215.387 78.4898 215.191 78.1943 215.316 77.7823C215.743 76.7435 216.072 75.1495 216.303 73.0002ZM219.426 73.0271C219.319 72.2928 219.497 71.8898 219.96 71.8181C220.44 71.7286 220.734 72.0599 220.841 72.8122C221.143 74.5316 221.303 75.7853 221.321 76.5734C221.357 77.0928 221.259 77.5047 221.028 77.8092C220.796 78.1137 220.423 78.042 219.907 77.5943C219.889 76.2331 219.729 74.7107 219.426 73.0271ZM222.175 72.5166C221.962 71.7823 222.069 71.3614 222.496 71.2539C222.923 71.1286 223.216 71.3435 223.376 71.8987L224.497 75.6331C224.658 76.1883 224.497 76.5375 224.017 76.6808C223.554 76.8241 223.27 76.645 223.163 76.1435C223.056 75.3913 222.727 74.1823 222.175 72.5166ZM236.028 72.5704C236.028 72.2301 235.859 72.0599 235.521 72.0599H228.528C228.19 72.0599 228.021 72.2301 228.021 72.5704V73.8331H236.028V72.5704ZM228.021 76.4659C228.021 76.8062 228.19 76.9763 228.528 76.9763H235.521C235.859 76.9763 236.028 76.8062 236.028 76.4659V75.1495H228.021V76.4659ZM227.353 78.4002C226.606 78.4002 226.232 78.0241 226.232 77.2719V71.7644C226.232 71.0122 226.606 70.636 227.353 70.636H236.749C237.496 70.636 237.87 71.0122 237.87 71.7644V77.2719C237.87 78.0241 237.496 78.4002 236.749 78.4002H227.353ZM235.067 66.8748C234.783 67.3763 234.48 67.5644 234.16 67.439C233.857 67.2957 233.831 66.9554 234.08 66.4181L234.587 65.3435C234.836 64.8062 235.147 64.6271 235.521 64.8062C235.913 64.9674 235.966 65.2987 235.681 65.8002L235.067 66.8748ZM228.261 65.7465C228.012 65.2092 228.056 64.8778 228.394 64.7524C228.733 64.6271 229.026 64.8241 229.275 65.3435L229.729 66.3107C229.978 66.8301 229.925 67.1704 229.569 67.3316C229.231 67.4748 228.946 67.2778 228.715 66.7405L228.261 65.7465ZM227.567 64.0808C227.229 64.0808 227.06 64.251 227.06 64.5913V67.4659C227.06 67.8062 227.229 67.9763 227.567 67.9763H231.17V64.0808H227.567ZM236.562 67.9763C236.9 67.9763 237.069 67.8062 237.069 67.4659V64.5913C237.069 64.251 236.9 64.0808 236.562 64.0808H232.718V67.9763H236.562ZM226.499 69.3733C225.752 69.3733 225.378 68.9972 225.378 68.245V63.8122C225.378 63.0599 225.752 62.6838 226.499 62.6838H237.63C238.377 62.6838 238.751 63.0599 238.751 63.8122V68.245C238.751 68.9972 238.377 69.3733 237.63 69.3733H226.499ZM228.234 60.4808C228.234 59.9972 228.528 59.7554 229.115 59.7554H234.8C235.388 59.7554 235.681 59.9972 235.681 60.4808C235.681 60.9465 235.388 61.1793 234.8 61.1793H229.115C228.528 61.1793 228.234 60.9465 228.234 60.4808ZM232.291 54.4898C232.843 54.7226 232.95 55.0629 232.612 55.5106C234.462 57.2121 236.722 58.5286 239.391 59.4599C240.05 59.6927 240.174 60.0689 239.765 60.5883C239.356 61.0898 238.84 61.2062 238.217 60.9375C235.708 59.845 233.501 58.4211 231.597 56.6659C229.658 58.7256 227.727 60.1942 225.805 61.0718C225.2 61.3584 224.684 61.242 224.257 60.7226C224.133 60.5614 224.008 60.5793 223.884 60.7763C222.158 63.6599 220.423 66.0599 218.679 67.9763C218.483 68.2092 218.545 68.3077 218.866 68.2719L222.335 67.7883L221.855 66.0689C221.695 65.4957 221.855 65.1554 222.335 65.048C222.816 64.9226 223.181 65.236 223.43 65.9883C223.981 67.4927 224.311 68.7823 224.417 69.8569C224.506 70.3226 224.293 70.636 223.777 70.7972C223.261 70.9405 222.958 70.7166 222.869 70.1256L222.709 69.3465C218.688 69.9375 216.535 70.3316 216.25 70.5286C216.072 70.5823 215.885 70.3047 215.689 69.6957C215.511 69.0868 215.583 68.7017 215.903 68.5405C215.974 68.6122 216.454 68.1375 217.344 67.1166C217.914 66.4898 218.732 65.3972 219.8 63.839C217.504 64.1077 216.294 64.2957 216.17 64.4032C215.938 64.4748 215.725 64.2241 215.529 63.651C215.333 63.0599 215.342 62.7107 215.556 62.6032C215.947 62.5853 216.944 61.1614 218.545 58.3315C219.328 56.9883 219.862 55.9405 220.147 55.1883C220.36 54.6509 220.761 54.5166 221.348 54.7853C221.935 55.036 222.095 55.439 221.828 55.9942C220.867 58.0181 219.675 60.0062 218.252 61.9584C218.038 62.2629 218.1 62.4062 218.439 62.3883L220.921 62.1196L222.149 59.9704C222.522 59.3256 223.021 59.2002 223.643 59.5942L224.124 59.8898C225.565 59.2092 226.953 58.3584 228.288 57.3375C229.622 56.2987 230.521 55.448 230.984 54.7853C231.322 54.3375 231.758 54.239 232.291 54.4898Z" fill="#F5F5F5"/>
<path d="M210.511 64.1607V62.1189C210.511 61.7786 210.342 61.6085 210.003 61.6085H203.971C203.633 61.6085 203.464 61.7786 203.464 62.1189V64.1607H210.511ZM210.511 68.2712V65.6652H203.464V68.2712H210.511ZM210.003 72.3816C210.342 72.3816 210.511 72.2115 210.511 71.8712V69.7757H203.464V71.8712C203.464 72.2115 203.633 72.3816 203.971 72.3816H210.003ZM201.702 61.1518C201.702 60.3995 202.076 60.0234 202.823 60.0234H205.439L205.92 57.4174H201.782C201.195 57.4174 200.902 57.1309 200.902 56.5577C200.902 55.9846 201.195 55.698 201.782 55.698H212.272C212.859 55.698 213.153 55.9846 213.153 56.5577C213.153 57.1309 212.859 57.4174 212.272 57.4174H207.948L207.254 60.0234H211.205C211.952 60.0234 212.326 60.3995 212.326 61.1518V72.8384C212.326 73.5906 211.952 73.9667 211.205 73.9667H202.823C202.076 73.9667 201.702 73.5906 201.702 72.8384V61.1518ZM192.147 65.6383C191.809 65.6383 191.64 65.8085 191.64 66.1488V69.507C191.64 73.6085 191.124 76.4831 190.092 78.1309C189.878 78.5428 189.531 78.5428 189.051 78.1309C188.588 77.719 188.455 77.307 188.65 76.8951C189.451 75.5697 189.851 73.107 189.851 69.507V65.1279C189.851 64.3757 190.145 63.9995 190.732 63.9995C189.914 63.2652 189.994 62.7189 190.972 62.3607C191.524 62.1995 192.387 61.8145 193.562 61.2055C192.636 60.7577 191.853 60.4174 191.213 60.1846C190.625 59.9339 190.545 59.6473 190.972 59.3249C191.399 58.9846 191.907 58.9398 192.494 59.1906C193.241 59.4592 194.113 59.8354 195.11 60.3189L197.432 58.5995H190.065C189.478 58.5995 189.184 58.3309 189.184 57.7936C189.184 57.2563 189.478 56.9876 190.065 56.9876H194.522L193.908 55.5368C193.677 54.9995 193.846 54.6592 194.416 54.516C195.003 54.3727 195.412 54.5697 195.643 55.107L196.498 56.9876H199.754C200.341 56.9876 200.635 57.2563 200.635 57.7936C200.635 58.3309 200.341 58.5995 199.754 58.5995H198.072C198.802 58.8861 198.793 59.3607 198.046 60.0234C198.028 60.113 197.565 60.4533 196.658 61.0443C198.063 61.7428 198.9 62.1816 199.167 62.3607C199.558 62.5757 199.54 62.8712 199.113 63.2473C198.686 63.6234 198.206 63.6592 197.672 63.3548C197.067 62.9786 196.231 62.5219 195.163 61.9846C193.971 62.6831 192.583 63.3548 190.999 63.9995H200.021C200.608 63.9995 200.902 64.2772 200.902 64.8324C200.902 65.3697 200.608 65.6383 200.021 65.6383H192.147ZM197.725 69.8294C198.135 69.4354 198.588 69.3458 199.087 69.5607C199.603 69.7578 199.656 70.0712 199.247 70.501C198.215 71.6473 196.613 72.6503 194.442 73.51C193.82 73.7607 193.312 73.6981 192.921 73.3219C192.529 72.9279 192.663 72.6055 193.321 72.3548C195.385 71.5846 196.853 70.7428 197.725 69.8294ZM196.978 66.3906C197.405 66.0324 197.868 65.9607 198.366 66.1757C198.882 66.3727 198.918 66.6682 198.473 67.0622C197.583 67.9578 196.186 68.7458 194.282 69.4264C193.642 69.6592 193.126 69.5876 192.734 69.2115C192.343 68.8354 192.485 68.5309 193.161 68.2981C194.976 67.707 196.248 67.0712 196.978 66.3906ZM198.579 73.6175C198.918 73.1697 199.362 73.0443 199.914 73.2413C200.466 73.4384 200.572 73.7697 200.234 74.2354C199.772 74.9876 198.82 75.8384 197.378 76.7876C195.955 77.7369 194.638 78.3906 193.428 78.7488C192.859 78.9637 192.387 78.8473 192.013 78.3995C191.64 77.9518 191.746 77.6384 192.334 77.4593C193.419 77.1727 194.638 76.6175 195.99 75.7936C197.343 74.9518 198.206 74.2264 198.579 73.6175ZM203.571 74.9607C203.944 74.5846 204.416 74.5667 204.985 74.907C205.555 75.2473 205.644 75.6055 205.252 75.9816C204.985 76.2861 204.345 76.7697 203.331 77.4324C202.334 78.0951 201.596 78.516 201.115 78.6951C200.617 78.9458 200.145 78.8473 199.701 78.3995C199.256 77.9697 199.291 77.6384 199.807 77.4055C200.252 77.2443 200.946 76.8503 201.889 76.2234C202.85 75.5966 203.411 75.1757 203.571 74.9607ZM208.535 76.0891C208.091 75.713 208.108 75.3548 208.589 75.0145C209.069 74.6742 209.532 74.6831 209.977 75.0413L212.859 77.4055C213.304 77.7637 213.269 78.1219 212.753 78.4801C212.237 78.8384 211.756 78.8294 211.311 78.4533L208.535 76.0891Z" fill="#F5F5F5"/>
<path d="M179.79 63.3819C179.985 63.8834 179.79 64.2775 179.202 64.564C178.615 64.8506 178.224 64.7342 178.028 64.2148C177.619 62.8894 176.773 61.3133 175.492 59.4864C175.119 58.8954 175.207 58.4745 175.759 58.2237C176.311 57.973 176.782 58.1431 177.174 58.7342C178.491 60.5431 179.362 62.0924 179.79 63.3819ZM167.672 55.3491C167.903 54.7939 168.321 54.6148 168.926 54.8118C169.549 54.9909 169.754 55.358 169.54 55.9133C169.006 57.3282 168.197 58.9849 167.111 60.8834V77.9969C167.111 78.5879 166.8 78.8834 166.177 78.8834C165.554 78.8834 165.243 78.5879 165.243 77.9969V63.8118C164.406 65.0118 163.703 65.9073 163.134 66.4984C162.743 66.9103 162.36 66.7939 161.986 66.1491C161.613 65.5043 161.613 64.9939 161.986 64.6178C162.912 63.7043 163.953 62.3073 165.109 60.4267C166.284 58.5461 167.138 56.8536 167.672 55.3491ZM176.96 69.7222C177.512 69.5252 177.85 69.7133 177.974 70.2864C178.099 70.8595 177.725 71.3252 176.853 71.6834C172.956 73.2416 170.51 74.2088 169.513 74.5849C169.264 74.6745 168.997 74.3969 168.713 73.7521C168.446 73.1073 168.588 72.6954 169.14 72.5163L171.088 71.8715L170.955 56.8536C170.955 56.2625 171.266 55.967 171.889 55.967C172.529 55.9491 172.85 56.2357 172.85 56.8267L173.01 71.173L176.96 69.7222ZM186.569 77.0028C186.8 77.3431 186.658 77.7551 186.142 78.2387C185.626 78.7222 185.252 78.776 185.021 78.3999C184.434 77.379 183.144 75.6148 181.151 73.1073C179.3 75.6864 176.738 77.567 173.464 78.7491C172.841 78.9999 172.316 78.8297 171.889 78.2387C171.462 77.6476 171.577 77.2357 172.236 77.0028C174.816 76.2148 176.925 74.9252 178.562 73.1342C179.416 72.167 180.128 71.1372 180.697 70.0446C181.266 68.9521 181.729 67.6357 182.085 66.0954C182.672 63.4088 183.037 60.2476 183.179 56.6118C183.215 55.8774 183.571 55.5282 184.247 55.564C184.923 55.5819 185.243 55.9401 185.208 56.6386C185.083 59.6118 184.79 62.361 184.327 64.8864C183.882 67.4118 183.179 69.5789 182.218 71.3879C184.461 74.0745 185.911 75.9461 186.569 77.0028Z" fill="#F5F5F5"/>
<path d="M17.4028 45.2601C17.4028 46.9795 16.1216 47.8392 13.5593 47.8392C10.9969 47.8392 9.71568 46.9795 9.71568 45.2601V42.8422H2.56238C0.854126 42.8422 0 41.6422 0 39.2422C0 36.8063 0.854126 35.5884 2.56238 35.5884H9.71568V34.1914C9.71568 32.472 10.9969 31.6123 13.5593 31.6123C16.1216 31.6123 17.4028 32.472 17.4028 34.1914V35.5884H20.7659C22.4742 35.5884 23.3283 36.8063 23.3283 39.2422C23.3283 41.6422 22.4742 42.8422 20.7659 42.8422H17.4028V45.2601ZM29.6809 49.3974C30.9265 50.9735 30.713 52.2989 29.0403 53.3735L28.5065 53.6959H43.9341C45.6424 53.6959 46.4965 54.9138 46.4965 57.3496C46.4965 59.7855 45.6424 61.0034 43.9341 61.0034H15.0006V69.3317C15.0006 70.5138 15.2497 71.3377 15.7479 71.8034C16.2818 72.2332 17.3494 72.4482 18.9509 72.4482H34.9124C38.9339 72.4482 41.3183 72.3586 42.0657 72.1795C43.6672 71.9646 44.5747 72.8422 44.7882 74.8123L45.0018 76.2631C45.2153 78.1616 44.7526 79.2004 43.6138 79.3795C42.1191 79.7735 39.3254 79.881 35.2327 79.7019H19.6449C14.9472 79.7019 11.6731 78.9497 9.82245 77.4452C7.97184 75.9407 7.04654 73.1646 7.04654 69.1168V61.0034H4.32401C2.61576 61.0034 1.76164 59.7855 1.76164 57.3496C1.76164 54.9138 2.61576 53.6959 4.32401 53.6959H23.3817L20.5524 49.881C19.5559 48.5198 20.1431 47.2481 22.314 46.066C24.4849 44.8481 26.1042 44.9019 27.1719 46.2272L29.6809 49.3974ZM38.756 35.5884H45.7491C47.4574 35.5884 48.3115 36.8063 48.3115 39.2422C48.3115 41.6422 47.4574 42.8422 45.7491 42.8422H38.756V45.2601C38.756 46.9795 37.457 47.8392 34.859 47.8392C32.2966 47.8392 31.0155 46.9795 31.0155 45.2601V42.8422H27.5456C25.8373 42.8422 24.9832 41.6422 24.9832 39.2422C24.9832 36.8063 25.8373 35.5884 27.5456 35.5884H31.0155V34.1914C31.0155 32.472 32.2966 31.6123 34.859 31.6123C37.457 31.6123 38.756 32.472 38.756 34.1914V35.5884Z" fill="#FBB8B7"/>
<mask id="mask0_30_69" style="mask-type:alpha" maskUnits="userSpaceOnUse" x="0" y="31" width="49" height="49">
<path d="M17.4028 45.2601C17.4028 46.9795 16.1216 47.8392 13.5593 47.8392C10.9969 47.8392 9.71568 46.9795 9.71568 45.2601V42.8422H2.56238C0.854126 42.8422 0 41.6422 0 39.2422C0 36.8063 0.854126 35.5884 2.56238 35.5884H9.71568V34.1914C9.71568 32.472 10.9969 31.6123 13.5593 31.6123C16.1216 31.6123 17.4028 32.472 17.4028 34.1914V35.5884H20.7659C22.4742 35.5884 23.3283 36.8063 23.3283 39.2422C23.3283 41.6422 22.4742 42.8422 20.7659 42.8422H17.4028V45.2601ZM29.6809 49.3974C30.9265 50.9735 30.713 52.2989 29.0403 53.3735L28.5065 53.6959H43.9341C45.6424 53.6959 46.4965 54.9138 46.4965 57.3496C46.4965 59.7855 45.6424 61.0034 43.9341 61.0034H15.0006V69.3317C15.0006 70.5138 15.2497 71.3377 15.7479 71.8034C16.2818 72.2332 17.3494 72.4482 18.9509 72.4482H34.9124C38.9339 72.4482 41.3183 72.3586 42.0657 72.1795C43.6672 71.9646 44.5747 72.8422 44.7882 74.8123L45.0018 76.2631C45.2153 78.1616 44.7526 79.2004 43.6138 79.3795C42.1191 79.7735 39.3254 79.881 35.2327 79.7019H19.6449C14.9472 79.7019 11.6731 78.9497 9.82245 77.4452C7.97184 75.9407 7.04654 73.1646 7.04654 69.1168V61.0034H4.32401C2.61576 61.0034 1.76164 59.7855 1.76164 57.3496C1.76164 54.9138 2.61576 53.6959 4.32401 53.6959H23.3817L20.5524 49.881C19.5559 48.5198 20.1431 47.2481 22.314 46.066C24.4849 44.8481 26.1042 44.9019 27.1719 46.2272L29.6809 49.3974ZM38.756 35.5884H45.7491C47.4574 35.5884 48.3115 36.8063 48.3115 39.2422C48.3115 41.6422 47.4574 42.8422 45.7491 42.8422H38.756V45.2601C38.756 46.9795 37.457 47.8392 34.859 47.8392C32.2966 47.8392 31.0155 46.9795 31.0155 45.2601V42.8422H27.5456C25.8373 42.8422 24.9832 41.6422 24.9832 39.2422C24.9832 36.8063 25.8373 35.5884 27.5456 35.5884H31.0155V34.1914C31.0155 32.472 32.2966 31.6123 34.859 31.6123C37.457 31.6123 38.756 32.472 38.756 34.1914V35.5884Z" fill="#D37453"/>
</mask>
<g mask="url(#mask0_30_69)">
<path d="M-1.76758 32.0296L24.1824 30.5371L23.0703 44.6189L14.5439 48.4476L-0.284721 44.6189L-1.76758 32.0296Z" fill="#F7C20B"/>
</g>
<mask id="mask1_30_69" style="mask-type:alpha" maskUnits="userSpaceOnUse" x="0" y="31" width="49" height="49">
<path d="M17.4028 45.2601C17.4028 46.9795 16.1216 47.8392 13.5593 47.8392C10.9969 47.8392 9.71568 46.9795 9.71568 45.2601V42.8422H2.56238C0.854126 42.8422 0 41.6422 0 39.2422C0 36.8063 0.854126 35.5884 2.56238 35.5884H9.71568V34.1914C9.71568 32.472 10.9969 31.6123 13.5593 31.6123C16.1216 31.6123 17.4028 32.472 17.4028 34.1914V35.5884H20.7659C22.4742 35.5884 23.3283 36.8063 23.3283 39.2422C23.3283 41.6422 22.4742 42.8422 20.7659 42.8422H17.4028V45.2601ZM29.6809 49.3974C30.9265 50.9735 30.7129 52.2989 29.0403 53.3735L28.5065 53.6959H43.9341C45.6424 53.6959 46.4965 54.9138 46.4965 57.3496C46.4965 59.7855 45.6424 61.0034 43.9341 61.0034H15.0006V69.3317C15.0006 70.5138 15.2497 71.3377 15.7479 71.8034C16.2818 72.2332 17.3494 72.4482 18.9509 72.4482H34.9124C38.9339 72.4482 41.3184 72.3586 42.0657 72.1795C43.6672 71.9646 44.5747 72.8422 44.7882 74.8123L45.0018 76.2631C45.2153 78.1616 44.7526 79.2004 43.6138 79.3795C42.1191 79.7735 39.3254 79.881 35.2327 79.7019H19.6449C14.9472 79.7019 11.6731 78.9496 9.82245 77.4452C7.97184 75.9407 7.04654 73.1646 7.04654 69.1168V61.0034H4.32401C2.61576 61.0034 1.76164 59.7855 1.76164 57.3496C1.76164 54.9138 2.61576 53.6959 4.32401 53.6959H23.3817L20.5524 49.881C19.5559 48.5198 20.1431 47.2481 22.314 46.066C24.4849 44.8481 26.1042 44.9019 27.1719 46.2272L29.6809 49.3974ZM38.756 35.5884H45.7491C47.4574 35.5884 48.3115 36.8063 48.3115 39.2422C48.3115 41.6422 47.4574 42.8422 45.7491 42.8422H38.756V45.2601C38.756 46.9795 37.457 47.8392 34.859 47.8392C32.2966 47.8392 31.0155 46.9795 31.0155 45.2601V42.8422H27.5456C25.8373 42.8422 24.9832 41.6422 24.9832 39.2422C24.9832 36.8063 25.8373 35.5884 27.5456 35.5884H31.0155V34.1914C31.0155 32.472 32.2966 31.6123 34.859 31.6123C37.457 31.6123 38.756 32.472 38.756 34.1914V35.5884Z" fill="#F7C209"/>
</mask>
<g mask="url(#mask1_30_69)">
<path d="M24.9243 30.5371H50.8743V43.97L34.5629 49.1938L24.9243 43.97V30.5371Z" fill="#F7C20B"/>
</g>
<defs>
<linearGradient id="paint0_linear_30_69" x1="7.32688" y1="16.6174" x2="45.3502" y2="11.0687" gradientUnits="userSpaceOnUse">
<stop offset="0.15" stop-color="#6CBF00"/>
<stop offset="1" stop-color="#AFD803"/>
</linearGradient>
<linearGradient id="paint1_linear_30_69" x1="24295.3" y1="-9783.61" x2="16396.9" y2="-12215.6" gradientUnits="userSpaceOnUse">
<stop offset="0.15" stop-color="#6CBF00"/>
<stop offset="1" stop-color="#AFD803"/>
</linearGradient>
</defs>
</svg>
